<?xml version="1.0" standalone="no"?>
<!DOCTYPE svg PUBLIC "-//W3C//DTD SVG 20010904//EN"
 "http://www.w3.org/TR/2001/REC-SVG-20010904/DTD/svg10.dtd">
<svg version="1.0" xmlns="http://www.w3.org/2000/svg"
 width="2048.000000pt" height="2048.000000pt" viewBox="0 0 2048.000000 2048.000000"
 preserveAspectRatio="xMidYMid meet">
<metadata>
Created by potrace 1.14, written by Peter Selinger 2001-2017
</metadata>
<g transform="translate(0.000000,2048.000000) scale(0.100000,-0.100000)"
fill="#000000" stroke="none">
<path d="M9967 20264 c-1 -1 -76 -5 -167 -9 -91 -3 -185 -8 -210 -10 -25 -2
-85 -7 -135 -11 -49 -3 -103 -7 -120 -9 -16 -2 -64 -6 -105 -9 -41 -3 -86 -8
-100 -11 -14 -2 -47 -7 -75 -10 -78 -8 -128 -14 -150 -19 -11 -2 -45 -7 -76
-10 -31 -4 -65 -8 -75 -10 -25 -5 -116 -19 -129 -20 -17 -2 -95 -16 -175 -31
-41 -8 -86 -16 -100 -19 -21 -4 -110 -22 -200 -40 -14 -3 -47 -10 -74 -16 -26
-5 -67 -15 -90 -21 -22 -6 -52 -13 -66 -16 -14 -2 -86 -20 -160 -39 -74 -19
-142 -36 -150 -38 -36 -10 -230 -66 -280 -82 -30 -10 -60 -19 -67 -20 -17 -3
-203 -63 -228 -74 -11 -4 -63 -23 -115 -40 -239 -82 -503 -187 -825 -330 -196
-87 -617 -303 -849 -436 -70 -41 -132 -74 -136 -74 -5 0 -10 -3 -12 -7 -1 -5
-43 -32 -93 -62 -165 -99 -681 -447 -742 -500 -6 -5 -49 -38 -95 -73 -45 -34
-89 -68 -96 -75 -7 -7 -16 -13 -20 -13 -4 0 -26 -17 -49 -38 -22 -20 -75 -64
-117 -97 -42 -33 -76 -63 -76 -67 0 -5 -4 -8 -10 -8 -5 0 -18 -8 -28 -17 -10
-10 -34 -31 -53 -47 -57 -49 -183 -159 -200 -176 -9 -8 -69 -64 -134 -125
-190 -177 -461 -452 -590 -600 -27 -31 -66 -74 -85 -95 -19 -21 -51 -57 -70
-80 -51 -61 -102 -121 -122 -142 -10 -10 -18 -21 -18 -25 0 -4 -9 -16 -20 -28
-25 -24 -210 -259 -265 -335 -22 -30 -50 -66 -62 -80 -13 -14 -26 -33 -29 -42
-3 -10 -10 -18 -16 -18 -6 0 -9 -3 -5 -6 5 -5 -2 -16 -38 -58 -5 -7 -14 -19
-20 -27 -5 -9 -76 -114 -156 -235 -80 -120 -184 -282 -230 -359 -46 -77 -88
-143 -94 -147 -5 -4 -6 -8 -2 -8 4 0 -4 -17 -18 -37 -14 -21 -25 -42 -25 -48
0 -6 -5 -16 -12 -23 -24 -24 -326 -613 -400 -782 -9 -19 -28 -62 -43 -95 -15
-33 -34 -78 -41 -99 -8 -22 -18 -44 -22 -50 -4 -6 -18 -38 -31 -71 -12 -33
-27 -69 -32 -80 -11 -25 -130 -336 -133 -350 -2 -5 -6 -17 -9 -25 -20 -52
-100 -287 -102 -300 0 -3 -6 -21 -13 -41 -7 -20 -15 -45 -17 -55 -3 -10 -23
-80 -45 -154 -33 -109 -83 -291 -95 -345 -1 -5 -5 -17 -8 -25 -5 -12 -40 -162
-72 -309 -3 -11 -7 -29 -9 -38 -7 -32 -65 -327 -70 -358 -2 -16 -5 -30 -6 -30
-1 0 -3 -13 -5 -30 -5 -48 -35 -239 -40 -255 -2 -8 -7 -44 -10 -80 -4 -36 -9
-72 -10 -81 -4 -22 -15 -104 -20 -159 -2 -25 -7 -65 -10 -90 -3 -25 -7 -74
-10 -110 -3 -36 -8 -94 -11 -130 -4 -36 -8 -85 -9 -110 -16 -310 -19 -419 -18
-685 0 -371 13 -667 39 -900 9 -85 15 -138 19 -195 3 -30 7 -71 10 -90 9 -75
15 -116 19 -145 2 -16 7 -50 10 -75 4 -25 9 -56 11 -70 2 -14 7 -43 10 -65 3
-23 8 -52 11 -65 3 -14 7 -38 9 -55 2 -16 6 -39 8 -50 3 -11 11 -54 18 -95 7
-41 13 -77 14 -80 1 -3 5 -23 9 -45 10 -58 44 -211 78 -355 16 -69 31 -132 33
-140 10 -48 73 -276 112 -405 24 -82 46 -154 47 -160 2 -5 5 -17 9 -25 3 -8
22 -67 42 -130 44 -135 124 -357 189 -522 48 -121 58 -146 100 -241 14 -32 26
-63 26 -70 0 -7 4 -17 9 -22 4 -6 36 -73 71 -150 72 -160 279 -573 292 -581 4
-3 6 -10 3 -15 -4 -5 -1 -9 4 -9 6 0 11 -5 11 -10 0 -15 235 -428 251 -440 4
-3 19 -28 33 -57 15 -28 34 -57 42 -64 8 -6 14 -15 14 -20 0 -8 256 -397 270
-409 3 -3 25 -34 49 -70 25 -36 48 -67 51 -70 3 -3 17 -21 30 -40 14 -19 28
-39 33 -45 4 -5 44 -57 88 -115 44 -58 88 -114 97 -125 9 -11 29 -37 44 -57
15 -20 33 -42 40 -50 7 -7 47 -53 88 -103 41 -49 85 -101 97 -115 12 -14 31
-36 43 -50 225 -263 698 -734 955 -951 22 -19 42 -36 45 -39 3 -3 32 -28 65
-55 33 -28 65 -54 71 -60 6 -5 25 -21 43 -35 18 -14 40 -32 49 -41 10 -8 37
-31 62 -49 25 -19 50 -39 56 -45 6 -5 26 -21 44 -35 68 -51 145 -110 155 -117
6 -5 66 -49 135 -98 69 -50 130 -93 135 -98 39 -30 326 -217 334 -217 5 0 11
-4 13 -8 3 -8 107 -75 172 -111 18 -11 44 -25 57 -33 13 -7 31 -18 39 -24 16
-12 28 -19 255 -146 344 -193 840 -426 1210 -568 210 -80 230 -88 295 -110 36
-12 74 -26 85 -30 89 -35 607 -194 675 -206 14 -3 39 -9 55 -14 70 -20 306
-78 385 -94 14 -2 68 -14 120 -25 52 -11 111 -23 130 -26 19 -4 71 -13 115
-21 78 -15 114 -21 165 -29 14 -2 39 -6 56 -9 17 -3 46 -8 65 -10 19 -3 50 -7
69 -10 19 -3 71 -10 115 -16 44 -5 98 -12 120 -15 22 -3 60 -8 85 -10 25 -3
70 -7 100 -11 30 -3 75 -7 100 -9 25 -2 79 -7 120 -10 237 -20 471 -29 795
-28 279 0 464 5 650 18 132 9 224 16 270 21 28 3 69 7 93 9 23 2 64 6 90 9 26
4 67 9 92 12 25 3 61 7 80 9 19 2 51 6 70 9 19 3 53 8 75 11 42 6 81 12 130
20 17 3 48 8 70 11 37 5 268 47 325 59 14 3 36 7 50 10 25 3 217 47 375 84 44
10 125 31 180 46 55 14 107 28 115 30 30 6 298 87 420 127 69 22 130 41 135
42 6 0 12 3 15 6 3 3 28 13 55 22 28 8 87 29 133 46 45 16 82 27 82 24 0 -4 4
-2 8 3 7 9 91 44 120 49 7 1 18 8 24 14 7 7 20 12 30 12 10 0 26 4 36 9 9 6
46 22 82 36 92 38 139 58 225 96 28 13 53 22 58 21 4 -1 7 3 7 8 0 6 7 10 15
10 8 0 23 4 33 9 9 5 145 73 302 150 157 78 308 154 335 169 28 16 82 46 120
67 39 21 90 51 115 66 25 15 68 40 95 55 28 14 61 35 74 45 13 11 29 19 37 19
7 0 14 3 16 8 4 9 167 112 178 112 5 0 10 3 12 8 2 4 41 32 88 62 47 30 87 58
88 63 2 4 10 7 18 7 8 0 14 5 14 10 0 6 7 10 15 10 8 0 15 4 15 9 0 5 8 12 18
15 10 4 27 14 38 24 11 9 42 32 69 51 90 62 230 166 233 173 2 5 8 8 13 8 5 0
17 8 27 17 10 10 69 56 130 103 62 47 112 88 112 93 0 4 5 7 11 7 6 0 16 6 23
12 13 13 69 61 156 133 24 20 50 44 57 53 7 10 13 14 13 10 0 -3 23 16 51 43
28 27 53 49 55 49 2 0 12 8 22 17 10 10 66 63 126 118 193 179 470 460 643
654 18 20 43 47 55 61 22 24 109 126 153 179 11 13 25 29 30 35 6 6 30 36 55
66 25 30 48 57 53 58 4 2 7 10 7 17 0 7 3 15 8 17 4 1 28 30 55 63 26 33 56
71 67 85 12 14 63 84 115 155 52 72 98 135 103 140 7 8 188 274 222 325 57 85
90 141 90 150 0 5 4 10 8 10 5 0 15 12 23 28 8 15 18 32 22 37 20 25 147 245
147 254 0 6 4 11 8 11 4 0 13 12 19 27 7 16 28 55 47 88 20 33 46 80 58 105
13 25 26 47 29 50 6 5 248 494 289 585 88 194 176 409 280 685 56 148 214 630
225 689 2 9 4 16 5 16 1 0 3 7 5 15 7 26 14 53 35 130 24 87 23 85 45 170 8
36 17 72 20 80 8 34 46 197 51 220 2 14 14 68 25 120 11 52 22 106 24 120 4
29 13 74 20 110 3 14 8 38 10 53 2 16 6 40 9 55 3 15 8 43 10 62 3 19 7 44 10
55 2 11 7 43 10 70 4 28 13 93 21 145 7 52 15 113 16 135 2 22 5 44 7 48 2 5
6 30 7 57 2 26 6 65 9 86 3 22 8 71 11 109 3 39 8 99 11 135 27 325 36 821 20
1180 -8 201 -12 246 -22 262 -5 7 -3 8 6 3 8 -5 11 -4 7 2 -3 5 -8 43 -12 84
-13 166 -38 405 -50 479 -2 14 -7 52 -11 85 -3 33 -8 69 -10 80 -3 11 -7 36
-10 55 -2 19 -7 46 -9 60 -3 14 -7 39 -9 55 -8 51 -47 279 -51 300 -3 11 -13
63 -24 115 -25 123 -47 225 -73 330 -11 47 -21 92 -23 100 -14 70 -153 570
-180 648 -2 7 -5 16 -6 20 -1 4 -11 32 -21 62 -11 30 -24 69 -28 85 -5 17 -27
82 -50 145 -23 63 -45 126 -50 140 -4 14 -20 57 -35 95 -15 39 -30 79 -35 90
-4 11 -12 31 -18 45 -6 14 -27 66 -47 115 -20 50 -43 104 -50 120 -7 17 -31
71 -53 120 -123 278 -292 612 -428 848 -19 32 -34 62 -34 68 0 5 -4 9 -10 9
-5 0 -10 4 -10 9 0 7 -83 151 -132 229 -10 15 -24 39 -32 53 -8 14 -42 67 -75
117 -34 51 -61 96 -61 101 0 5 -3 11 -7 13 -11 4 -113 156 -113 167 0 5 -4 11
-8 13 -5 2 -23 26 -42 53 -18 28 -36 52 -39 55 -3 3 -20 25 -36 50 -17 24 -35
51 -42 60 -6 8 -48 65 -94 125 -83 111 -118 158 -142 185 -7 8 -28 35 -47 60
-19 25 -37 47 -40 50 -3 3 -25 30 -50 60 -25 30 -49 60 -55 66 -5 6 -25 29
-42 51 -18 21 -50 58 -70 80 -21 22 -74 80 -118 128 -159 174 -407 414 -604
585 -35 30 -69 60 -75 65 -13 12 -185 156 -202 169 -7 5 -25 20 -42 35 -17 14
-45 37 -63 51 -39 30 -108 85 -129 103 -8 7 -42 33 -75 57 -33 25 -62 47 -65
50 -3 3 -32 25 -65 49 -33 25 -62 47 -65 50 -3 3 -12 11 -21 16 -9 6 -81 57
-160 114 -79 58 -171 123 -204 146 -179 124 -256 175 -265 175 -5 0 -10 4 -10
8 0 5 -19 19 -42 32 -41 22 -97 59 -108 70 -3 3 -16 11 -30 19 -14 8 -83 51
-155 94 -71 44 -143 88 -160 97 -160 92 -204 117 -230 130 -16 8 -32 17 -35
21 -3 3 -23 14 -45 25 -548 277 -647 321 -1130 510 -65 25 -501 172 -535 179
-8 2 -71 20 -140 40 -69 21 -132 39 -140 41 -8 2 -51 13 -95 24 -44 12 -98 25
-120 31 -22 5 -49 11 -60 14 -11 3 -29 7 -40 9 -11 2 -40 9 -65 16 -25 7 -54
14 -65 16 -11 2 -51 10 -90 18 -38 9 -81 18 -95 20 -14 3 -36 8 -50 11 -14 3
-38 8 -55 10 -16 3 -75 14 -130 25 -55 10 -120 21 -145 25 -25 3 -74 11 -110
16 -36 6 -83 13 -105 15 -21 2 -46 6 -55 9 -8 2 -42 7 -75 10 -33 3 -78 9
-100 12 -22 3 -51 7 -65 8 -51 4 -176 17 -200 20 -22 4 -93 9 -265 20 -211 14
-908 28 -918 19z m194 -1709 c21 14 535 -1 734 -21 28 -3 79 -7 115 -9 36 -2
76 -6 90 -9 14 -2 55 -7 92 -11 37 -3 77 -8 90 -10 13 -2 43 -7 68 -10 25 -2
56 -7 70 -9 14 -2 46 -7 71 -10 53 -8 94 -14 129 -21 28 -6 59 -11 110 -19 19
-3 60 -10 90 -16 30 -6 66 -14 80 -16 14 -3 54 -12 90 -20 36 -8 81 -17 100
-20 19 -4 42 -10 50 -14 8 -4 18 -8 23 -8 28 -1 87 -15 87 -22 0 -4 -300 -9
-667 -10 -2866 -7 -3425 -7 -3398 1 17 5 39 11 50 14 11 2 40 9 65 16 25 6 52
12 60 14 29 7 346 74 374 79 16 3 50 8 75 12 25 4 55 8 66 11 11 2 31 6 45 8
14 2 39 6 55 9 17 3 50 7 75 11 25 3 56 8 70 10 14 3 50 7 80 10 30 3 66 8 80
10 14 2 54 6 90 9 36 3 74 8 85 10 11 2 67 7 125 11 58 3 125 8 150 10 25 2
126 7 224 9 98 3 182 8 185 11 3 4 7 1 9 -4 2 -6 8 -9 13 -6z m5503 -2218 c59
-4 122 -9 140 -12 94 -16 144 -29 171 -45 44 -27 374 -369 517 -534 18 -21 42
-48 53 -60 37 -39 188 -226 255 -316 14 -18 30 -38 35 -44 6 -6 26 -33 45 -61
19 -27 37 -52 41 -55 3 -3 21 -27 40 -55 18 -27 37 -52 40 -55 6 -6 199 -292
214 -317 11 -19 26 -44 82 -130 18 -28 33 -56 33 -61 0 -6 6 -13 13 -15 6 -3
-1586 -6 -3539 -6 l-3551 -1 -1 -824 -1 -824 35 -4 c19 -2 34 0 34 5 0 4 5 5
11 2 5 -4 51 -6 102 -5 100 2 102 2 132 0 11 -1 64 -1 117 0 53 1 101 -1 107
-5 6 -3 11 -1 11 5 0 6 5 8 11 5 5 -4 51 -6 102 -5 100 2 102 2 132 0 11 -1
64 -1 117 0 53 1 101 -1 107 -5 6 -3 11 -1 11 5 0 6 5 8 11 5 5 -4 51 -6 102
-5 100 2 102 2 132 0 11 -1 64 -1 117 0 53 1 101 -1 107 -5 6 -3 11 -1 11 5 0
6 5 8 11 5 5 -4 51 -6 102 -5 100 2 102 2 132 0 11 -1 64 -1 117 0 53 1 101
-1 107 -5 6 -3 11 -1 11 5 0 6 4 9 8 6 12 -7 40 -8 345 -6 147 1 272 -2 277
-5 6 -3 10 -1 10 5 0 6 5 8 11 5 5 -4 51 -6 102 -5 100 2 102 2 132 0 11 -1
64 -1 117 0 53 1 101 -1 107 -5 6 -3 11 -1 11 5 0 6 5 8 11 5 5 -4 51 -6 102
-5 100 2 102 2 132 0 11 -1 64 -1 117 0 53 1 101 -1 107 -5 6 -3 11 -1 11 5 0
6 5 8 11 5 5 -4 51 -6 102 -5 100 2 102 2 132 0 11 -1 64 -1 117 0 53 1 101
-1 107 -5 6 -3 11 -1 11 5 0 6 5 8 11 5 5 -4 51 -6 102 -5 100 2 102 2 132 0
11 -1 64 -1 117 0 53 1 101 -1 107 -5 6 -3 11 -1 11 5 0 6 4 9 8 6 11 -7 29
-7 372 -7 162 -1 300 -1 305 -1 6 0 21 1 35 2 14 1 90 1 170 1 80 0 152 0 160
0 33 1 318 0 365 -1 67 -2 112 -6 162 -14 47 -8 58 -31 47 -94 -6 -40 -50
-175 -65 -201 -5 -9 -30 -61 -57 -116 -27 -55 -62 -125 -79 -155 -17 -30 -48
-89 -70 -130 -22 -41 -70 -128 -107 -193 -36 -64 -66 -122 -66 -127 0 -6 -4
-10 -8 -10 -5 0 -14 -16 -22 -35 -8 -19 -18 -35 -22 -35 -5 0 -7 -4 -3 -9 3
-5 1 -12 -4 -15 -5 -4 -26 -37 -47 -74 -21 -37 -45 -80 -54 -97 -9 -16 -43
-74 -74 -129 -31 -54 -73 -128 -93 -165 -20 -36 -40 -67 -45 -69 -4 -2 -8 -8
-8 -14 0 -5 -22 -48 -50 -95 -27 -47 -50 -89 -50 -94 0 -5 -4 -9 -10 -9 -5 0
-10 -9 -10 -20 0 -11 -3 -20 -8 -20 -4 0 -16 -17 -27 -37 -11 -21 -41 -75 -67
-121 -27 -46 -48 -87 -48 -92 0 -4 -4 -10 -8 -12 -4 -1 -37 -54 -72 -117 -36
-63 -80 -139 -98 -170 -18 -31 -37 -65 -42 -76 -6 -11 -20 -36 -32 -55 -11
-19 -31 -53 -43 -75 -102 -179 -155 -272 -162 -280 -4 -6 -17 -28 -28 -50 -11
-22 -22 -42 -25 -45 -3 -3 -102 -174 -220 -380 -118 -206 -218 -376 -222 -378
-4 -2 -8 -9 -8 -14 0 -6 -25 -54 -55 -105 -30 -52 -55 -98 -55 -104 0 -5 -4
-9 -9 -9 -5 0 -12 -9 -16 -20 -8 -27 -88 -164 -97 -168 -5 -2 -8 -7 -8 -12 0
-11 -349 -621 -368 -642 -8 -10 -12 -18 -8 -18 4 0 -5 -17 -19 -37 -14 -21
-25 -43 -25 -50 0 -7 -4 -13 -9 -13 -5 0 -12 -11 -15 -25 -4 -14 -11 -25 -16
-25 -6 0 -10 -6 -10 -13 0 -7 -10 -28 -23 -47 -13 -19 -37 -60 -53 -90 -16
-30 -31 -57 -34 -60 -6 -6 -37 -62 -72 -127 -12 -24 -26 -43 -30 -43 -4 0 -8
-9 -8 -20 0 -11 -3 -20 -7 -20 -5 0 -24 -30 -43 -67 -19 -38 -43 -77 -52 -87
-10 -11 -18 -28 -18 -38 0 -10 -3 -18 -8 -18 -4 0 -18 -21 -32 -47 -14 -27
-30 -54 -37 -61 -7 -7 -13 -18 -13 -23 0 -5 -20 -43 -45 -83 -25 -41 -45 -79
-45 -85 0 -6 -4 -11 -10 -11 -5 0 -10 -6 -11 -12 0 -7 -14 -33 -29 -58 -16
-25 -36 -58 -44 -75 -8 -16 -29 -52 -46 -80 -16 -27 -37 -63 -45 -80 -9 -16
-24 -43 -34 -60 -10 -16 -27 -46 -38 -65 -11 -19 -63 -111 -116 -203 -54 -93
-97 -173 -97 -178 0 -5 -4 -9 -9 -9 -5 0 -15 -16 -22 -35 -7 -19 -17 -35 -21
-35 -4 0 -8 -5 -8 -10 0 -6 -15 -34 -33 -63 -18 -29 -39 -65 -47 -82 -8 -16
-17 -32 -20 -35 -3 -3 -10 -14 -16 -25 -25 -46 -63 -113 -85 -150 -31 -51 -53
-91 -76 -135 -10 -19 -20 -37 -23 -40 -3 -3 -98 -166 -210 -362 -113 -197
-262 -458 -332 -580 -71 -122 -128 -223 -128 -223 0 -1 -36 -64 -80 -139 -44
-75 -80 -141 -80 -146 0 -6 -4 -10 -10 -10 -5 0 -10 -4 -10 -10 0 -5 -32 -64
-72 -132 -39 -68 -85 -148 -101 -178 -17 -30 -38 -66 -47 -80 -9 -14 -34 -56
-56 -95 -21 -38 -44 -79 -51 -90 -7 -11 -15 -27 -19 -35 -4 -8 -27 -48 -51
-88 -24 -41 -43 -77 -43 -82 0 -5 -3 -10 -7 -12 -9 -3 -34 -46 -60 -100 -10
-21 -21 -38 -25 -38 -5 0 -8 -4 -8 -9 0 -5 -54 -102 -120 -216 -66 -114 -120
-212 -120 -216 0 -5 -4 -9 -10 -9 -5 0 -10 -6 -10 -12 0 -7 -18 -42 -40 -78
-21 -36 -51 -87 -66 -115 -15 -27 -32 -53 -38 -57 -6 -4 -8 -8 -4 -8 4 0 -8
-25 -27 -55 -19 -30 -35 -58 -35 -64 0 -5 -6 -16 -12 -23 -7 -7 -20 -26 -28
-43 -8 -16 -25 -45 -38 -62 -14 -18 -21 -33 -17 -33 3 0 -3 -12 -14 -26 -12
-15 -21 -33 -21 -40 0 -8 -3 -14 -7 -14 -5 0 -17 -18 -27 -40 -26 -55 -39 -63
-94 -62 -139 3 -396 12 -462 17 -185 13 -219 16 -275 21 -33 4 -71 7 -85 9
-118 13 -148 16 -170 20 -14 2 -50 7 -80 11 -30 3 -66 8 -80 10 -14 2 -41 6
-60 8 -39 5 -92 14 -130 21 -57 12 -203 39 -275 51 -16 3 -57 12 -90 20 -33 8
-71 17 -85 19 -37 6 -311 74 -340 84 -14 5 -61 19 -105 31 -99 27 -423 128
-450 140 -11 5 -49 18 -85 30 -36 12 -78 28 -95 35 -16 7 -41 16 -55 20 -14 3
-34 10 -45 15 -11 5 -51 21 -90 35 -83 32 -192 74 -220 86 -73 31 -349 141
-352 140 -8 -1 -143 75 -171 96 -40 30 -80 91 -87 134 -3 18 -8 35 -10 39 -10
15 -16 197 -22 580 -6 456 -10 5883 -4 5917 l3 23 1990 2 1990 3 2 703 c1 696
1 702 -19 703 -11 0 -908 1 -1992 1 l-1973 1 0 41 c-4 866 3 5343 8 5348 4 4
183 9 397 10 858 6 8887 1 8989 -5z m-11190 -2529 c-7 -6300 -13 -9551 -18
-9556 -3 -3 -31 22 -62 54 -75 80 -237 253 -266 285 -13 14 -43 48 -68 76 -49
54 -128 145 -157 180 -10 12 -34 41 -53 64 -45 54 -65 78 -89 109 -11 14 -33
41 -49 60 -42 51 -233 307 -272 365 -19 28 -38 55 -42 60 -26 31 -88 127 -88
135 0 6 -4 10 -10 10 -5 0 -10 6 -10 13 0 7 -8 22 -18 33 -10 10 -49 71 -87
134 -39 63 -73 117 -77 118 -5 2 -8 8 -8 13 0 5 -17 38 -38 72 -103 166 -257
461 -374 717 -105 231 -101 222 -141 320 -19 47 -39 96 -45 110 -73 171 -261
736 -292 880 -4 19 -10 42 -14 50 -3 8 -22 83 -42 165 -38 164 -39 167 -54
240 -6 28 -13 61 -16 75 -10 49 -13 66 -28 150 -9 47 -18 96 -20 110 -5 26
-10 59 -26 170 -6 36 -12 76 -14 90 -5 25 -11 82 -21 183 -3 28 -8 68 -11 87
-3 19 -8 58 -10 85 -1 28 -6 82 -9 120 -9 105 -14 204 -19 368 -3 81 -8 152
-11 157 -3 5 -1 11 5 15 6 4 8 11 4 16 -8 13 -9 157 -2 164 3 4 2 21 -2 40 -4
19 -6 36 -3 39 2 2 6 69 8 148 5 171 14 314 30 473 2 22 7 72 10 110 4 39 8
81 11 95 2 14 7 52 10 85 7 59 11 90 14 90 1 0 3 16 5 35 8 74 36 251 50 320
3 14 10 50 16 80 49 254 117 533 199 810 56 191 186 567 201 585 5 5 9 15 9
23 0 8 6 28 14 45 8 18 44 104 81 192 113 268 280 611 419 854 42 73 76 138
76 142 0 5 5 9 10 9 6 0 10 4 10 9 0 19 306 493 321 499 5 2 9 8 9 13 0 6 4
15 10 22 46 56 60 76 60 84 0 5 11 20 25 33 14 13 25 29 25 36 0 7 3 14 8 16
4 2 45 53 92 113 78 102 122 158 153 195 7 8 35 42 62 75 52 63 80 96 185 214
90 102 137 154 217 238 37 40 100 106 138 147 39 41 73 75 76 75 3 1 4 -1098
3 -2441z m13839 -1655 c3 -16 8 -39 11 -53 30 -130 113 -548 130 -660 2 -14 7
-41 10 -60 3 -19 8 -53 10 -75 3 -22 8 -51 10 -65 2 -14 7 -51 11 -84 4 -32 9
-69 11 -82 2 -12 6 -47 8 -76 3 -29 7 -75 10 -103 22 -199 30 -397 30 -720 0
-252 -6 -450 -19 -590 -2 -27 -7 -77 -10 -110 -3 -33 -7 -73 -9 -90 -2 -16 -6
-59 -10 -95 -3 -36 -8 -76 -11 -90 -2 -14 -6 -45 -9 -70 -3 -25 -8 -56 -10
-70 -2 -14 -7 -47 -11 -73 -4 -27 -8 -57 -10 -67 -2 -9 -6 -35 -9 -56 -6 -36
-39 -216 -51 -274 -7 -33 -14 -69 -20 -100 -5 -28 -92 -386 -100 -410 -2 -8
-18 -64 -35 -125 -39 -137 -36 -127 -43 -145 -10 -26 -27 -86 -32 -108 -2 -11
-9 -30 -15 -41 -6 -12 -8 -21 -4 -21 3 0 0 -7 -7 -17 -8 -9 -13 -19 -13 -22 1
-3 0 -10 -2 -16 -48 -145 -71 -210 -117 -327 -19 -48 -32 -89 -29 -92 3 -4 0
-6 -6 -6 -7 0 -12 -7 -12 -16 0 -8 -11 -40 -25 -70 -14 -30 -25 -60 -25 -66 0
-6 -7 -19 -15 -28 -8 -9 -16 -25 -18 -36 -6 -31 -87 -208 -162 -356 -19 -38
-32 -68 -28 -68 3 0 -1 -8 -9 -17 -8 -10 -38 -64 -66 -120 -29 -56 -74 -141
-102 -189 -27 -48 -50 -88 -50 -90 0 -15 -322 -526 -365 -579 -9 -11 -28 -39
-42 -62 -14 -24 -28 -43 -32 -43 -4 0 -12 -10 -18 -22 -13 -28 -203 -282 -215
-286 -4 -2 -8 -8 -8 -13 0 -6 -10 -20 -22 -33 -37 -37 -58 -66 -58 -75 0 -5
-3 -11 -7 -13 -5 -1 -62 -66 -128 -143 -269 -314 -624 -672 -880 -886 -22 -19
-45 -38 -51 -44 -69 -62 -209 -174 -354 -284 -74 -56 -144 -109 -155 -117 -17
-13 -216 -152 -265 -184 -159 -106 -377 -240 -389 -240 -5 0 -11 -4 -13 -8 -1
-5 -39 -28 -83 -52 -44 -24 -81 -47 -83 -52 -2 -4 -12 -8 -23 -8 -10 0 -19 -4
-19 -8 0 -4 -15 -15 -32 -23 -18 -9 -132 -66 -253 -127 -213 -107 -416 -200
-560 -257 -38 -15 -83 -33 -100 -41 -43 -19 -381 -143 -402 -147 -10 -2 -30
-9 -44 -15 -15 -6 -46 -16 -70 -23 -54 -16 -51 -15 -69 -22 -8 -3 -31 -10 -50
-15 -19 -6 -43 -13 -54 -17 -16 -7 -17 -5 -11 16 4 12 14 29 21 37 8 7 14 19
14 27 0 7 3 15 8 17 6 3 15 17 61 103 9 17 19 32 24 33 4 2 7 8 7 13 0 5 18
38 40 74 22 36 40 67 40 69 0 9 85 151 92 154 4 2 8 12 8 22 0 10 4 20 8 22 8
3 59 89 86 145 6 13 14 23 19 23 4 0 7 4 7 9 0 8 50 98 131 239 11 17 27 47
38 65 10 17 79 138 153 267 342 595 438 763 438 771 0 5 5 9 10 9 6 0 10 4 10
9 0 5 24 49 52 98 29 48 53 90 53 93 0 3 8 16 16 30 26 40 119 201 119 206 0
2 26 48 58 101 32 54 62 105 66 113 4 8 12 24 19 35 7 11 28 47 47 80 19 33
43 74 53 90 10 17 23 42 30 58 6 15 15 27 19 27 4 0 8 4 8 9 0 5 39 76 86 158
47 81 98 168 112 193 23 42 97 169 164 285 16 28 34 61 41 75 6 14 14 27 17
30 4 3 20 30 36 60 38 70 63 112 130 227 30 51 54 97 54 102 0 6 4 11 9 11 5
0 11 8 14 18 6 16 34 66 107 188 19 33 38 67 42 78 5 10 16 30 27 45 10 14 32
51 48 81 28 51 244 427 284 495 10 17 30 53 44 80 15 28 33 57 39 65 7 8 17
26 24 40 7 14 16 32 22 40 26 39 220 384 220 392 0 4 4 8 9 8 5 0 11 8 15 18
3 9 10 24 15 32 33 50 161 281 161 290 0 5 3 10 8 10 4 0 23 31 42 68 19 37
38 69 41 72 7 6 55 90 101 178 18 34 36 62 40 62 5 0 8 6 8 13 1 6 16 37 35
67 19 30 42 71 52 90 9 19 23 41 30 48 7 8 11 18 8 23 -4 5 -1 9 5 9 6 0 14 8
17 18 4 9 65 118 136 242 72 124 138 241 149 260 10 19 22 42 28 50 14 23 485
841 517 900 23 40 58 102 80 140 30 51 91 158 121 209 14 25 38 67 53 93 16
27 29 53 29 58 0 6 4 10 8 10 4 0 15 15 23 33 9 17 58 106 111 197 52 91 101
176 109 190 8 14 19 28 24 32 6 4 6 8 2 8 -5 0 1 12 12 26 12 15 21 33 21 40
0 8 5 14 10 14 6 0 10 4 10 9 0 7 50 97 168 299 18 32 35 65 39 75 3 9 8 17
12 17 3 0 12 15 20 33 8 17 19 39 26 47 13 15 73 120 102 177 19 37 28 35 36
-4z"/>
</g>
</svg>
